<mxfile host="app.diagrams.net" modified="2023-06-02T22:19:50.288Z" agent="Mozilla/5.0 (X11; Linux x86_64) AppleWebKit/537.36 (KHTML, like Gecko) Chrome/110.0.0.0 Safari/537.36" etag="QBSWh8sjINEsy9d-tDs7" version="21.3.6" type="device">
  <diagram name="Страница 1" id="bHYNRlSTIzHRA6oqRkjn">
    <mxGraphModel dx="978" dy="591" grid="1" gridSize="10" guides="1" tooltips="1" connect="1" arrows="1" fold="1" page="1" pageScale="1" pageWidth="600" pageHeight="1000" math="0" shadow="0">
      <root>
        <mxCell id="0" />
        <mxCell id="1" parent="0" />
        <mxCell id="8-j4BtTnx-JnqvVjRiaJ-2" value="Пространство ядра" style="text;html=1;strokeColor=none;fillColor=none;align=center;verticalAlign=middle;whiteSpace=wrap;rounded=0;fontFamily=Times New Roman;fontSize=16;" parent="1" vertex="1">
          <mxGeometry x="425" y="20" width="140" height="30" as="geometry" />
        </mxCell>
        <mxCell id="8-j4BtTnx-JnqvVjRiaJ-4" value="Модуль zram" style="text;html=1;strokeColor=none;fillColor=none;align=center;verticalAlign=middle;whiteSpace=wrap;rounded=0;fontFamily=Times New Roman;fontSize=16;" parent="1" vertex="1">
          <mxGeometry x="445" y="930" width="100" height="30" as="geometry" />
        </mxCell>
        <mxCell id="8-j4BtTnx-JnqvVjRiaJ-5" value="" style="endArrow=none;dashed=1;html=1;rounded=0;endSize=6;strokeWidth=1;dashPattern=12 12;" parent="1" edge="1">
          <mxGeometry width="50" height="50" relative="1" as="geometry">
            <mxPoint x="35" y="70" as="sourcePoint" />
            <mxPoint x="35" y="980" as="targetPoint" />
          </mxGeometry>
        </mxCell>
        <mxCell id="8-j4BtTnx-JnqvVjRiaJ-9" value="Модуль сжатия" style="text;html=1;strokeColor=none;fillColor=none;align=center;verticalAlign=middle;whiteSpace=wrap;rounded=0;fontFamily=Times New Roman;fontSize=16;" parent="1" vertex="1">
          <mxGeometry x="422.99999999999994" y="520" width="110" height="30" as="geometry" />
        </mxCell>
        <mxCell id="8-j4BtTnx-JnqvVjRiaJ-10" value="" style="endArrow=none;html=1;rounded=0;" parent="1" edge="1">
          <mxGeometry width="50" height="50" relative="1" as="geometry">
            <mxPoint x="392.16999999999996" y="553" as="sourcePoint" />
            <mxPoint x="392.16999999999996" y="393" as="targetPoint" />
          </mxGeometry>
        </mxCell>
        <mxCell id="8-j4BtTnx-JnqvVjRiaJ-11" value="" style="endArrow=none;html=1;rounded=0;" parent="1" edge="1">
          <mxGeometry width="50" height="50" relative="1" as="geometry">
            <mxPoint x="543" y="393.66" as="sourcePoint" />
            <mxPoint x="392.9999999999999" y="393.66" as="targetPoint" />
          </mxGeometry>
        </mxCell>
        <mxCell id="8-j4BtTnx-JnqvVjRiaJ-12" value="" style="endArrow=none;html=1;rounded=0;" parent="1" edge="1">
          <mxGeometry width="50" height="50" relative="1" as="geometry">
            <mxPoint x="542.17" y="553" as="sourcePoint" />
            <mxPoint x="392.16999999999996" y="553" as="targetPoint" />
          </mxGeometry>
        </mxCell>
        <mxCell id="8-j4BtTnx-JnqvVjRiaJ-13" value="" style="endArrow=none;html=1;rounded=0;" parent="1" edge="1">
          <mxGeometry width="50" height="50" relative="1" as="geometry">
            <mxPoint x="541.67" y="553" as="sourcePoint" />
            <mxPoint x="541.67" y="393" as="targetPoint" />
          </mxGeometry>
        </mxCell>
        <mxCell id="8-j4BtTnx-JnqvVjRiaJ-42" style="edgeStyle=orthogonalEdgeStyle;rounded=0;orthogonalLoop=1;jettySize=auto;html=1;exitX=0.5;exitY=1;exitDx=0;exitDy=0;entryX=0.5;entryY=0;entryDx=0;entryDy=0;dashed=1;" parent="1" source="8-j4BtTnx-JnqvVjRiaJ-14" target="8-j4BtTnx-JnqvVjRiaJ-41" edge="1">
          <mxGeometry relative="1" as="geometry" />
        </mxCell>
        <mxCell id="q-0QKQOBBgqSstTUB_Su-4" style="edgeStyle=orthogonalEdgeStyle;rounded=0;orthogonalLoop=1;jettySize=auto;html=1;exitX=1;exitY=0.25;exitDx=0;exitDy=0;entryX=0.5;entryY=0;entryDx=0;entryDy=0;dashed=1;" parent="1" source="8-j4BtTnx-JnqvVjRiaJ-14" target="8-j4BtTnx-JnqvVjRiaJ-22" edge="1">
          <mxGeometry relative="1" as="geometry" />
        </mxCell>
        <mxCell id="8-j4BtTnx-JnqvVjRiaJ-14" value="Вычисление информационной энтропии" style="rounded=0;whiteSpace=wrap;html=1;fontFamily=Times New Roman;fontSize=16;labelBackgroundColor=none;fillColor=#CCCCCC;fontColor=#333333;strokeColor=#666666;" parent="1" vertex="1">
          <mxGeometry x="142.17" y="354" width="160" height="80" as="geometry" />
        </mxCell>
        <mxCell id="8-j4BtTnx-JnqvVjRiaJ-15" value="Модуль блочного устройства" style="text;html=1;strokeColor=none;fillColor=none;align=center;verticalAlign=middle;whiteSpace=wrap;rounded=0;fontFamily=Times New Roman;fontSize=16;" parent="1" vertex="1">
          <mxGeometry x="55.000000000000014" y="100" width="170" height="30" as="geometry" />
        </mxCell>
        <mxCell id="8-j4BtTnx-JnqvVjRiaJ-17" value="" style="endArrow=none;html=1;rounded=0;" parent="1" edge="1">
          <mxGeometry width="50" height="50" relative="1" as="geometry">
            <mxPoint x="585" y="20" as="sourcePoint" />
            <mxPoint x="15" y="19.999999999999986" as="targetPoint" />
          </mxGeometry>
        </mxCell>
        <mxCell id="8-j4BtTnx-JnqvVjRiaJ-40" style="edgeStyle=orthogonalEdgeStyle;rounded=0;orthogonalLoop=1;jettySize=auto;html=1;exitX=0.5;exitY=1;exitDx=0;exitDy=0;entryX=0.5;entryY=0;entryDx=0;entryDy=0;dashed=1;" parent="1" source="8-j4BtTnx-JnqvVjRiaJ-21" target="8-j4BtTnx-JnqvVjRiaJ-14" edge="1">
          <mxGeometry relative="1" as="geometry" />
        </mxCell>
        <mxCell id="q-0QKQOBBgqSstTUB_Su-3" style="edgeStyle=orthogonalEdgeStyle;rounded=0;orthogonalLoop=1;jettySize=auto;html=1;exitX=0.25;exitY=1;exitDx=0;exitDy=0;entryX=0.25;entryY=0;entryDx=0;entryDy=0;dashed=1;" parent="1" source="8-j4BtTnx-JnqvVjRiaJ-21" target="8-j4BtTnx-JnqvVjRiaJ-26" edge="1">
          <mxGeometry relative="1" as="geometry">
            <Array as="points">
              <mxPoint x="182.17" y="310" />
              <mxPoint x="97.16999999999999" y="310" />
              <mxPoint x="97.16999999999999" y="700" />
              <mxPoint x="182.17" y="700" />
            </Array>
          </mxGeometry>
        </mxCell>
        <mxCell id="8-j4BtTnx-JnqvVjRiaJ-21" value="Проверка повторяющихся&lt;br&gt;данных" style="rounded=0;whiteSpace=wrap;html=1;fontFamily=Times New Roman;fontSize=16;" parent="1" vertex="1">
          <mxGeometry x="142.17" y="210" width="160" height="80" as="geometry" />
        </mxCell>
        <mxCell id="q-0QKQOBBgqSstTUB_Su-5" style="edgeStyle=orthogonalEdgeStyle;rounded=0;orthogonalLoop=1;jettySize=auto;html=1;exitX=0.5;exitY=1;exitDx=0;exitDy=0;entryX=0.75;entryY=0;entryDx=0;entryDy=0;" parent="1" source="8-j4BtTnx-JnqvVjRiaJ-22" target="8-j4BtTnx-JnqvVjRiaJ-41" edge="1">
          <mxGeometry relative="1" as="geometry">
            <Array as="points">
              <mxPoint x="442.16999999999996" y="510" />
              <mxPoint x="327.16999999999996" y="510" />
              <mxPoint x="327.16999999999996" y="454" />
              <mxPoint x="262.16999999999996" y="454" />
            </Array>
          </mxGeometry>
        </mxCell>
        <mxCell id="8-j4BtTnx-JnqvVjRiaJ-22" value="Сжатие данных" style="rounded=0;whiteSpace=wrap;html=1;fontFamily=Times New Roman;fontSize=16;" parent="1" vertex="1">
          <mxGeometry x="412.16999999999996" y="413" width="80" height="80" as="geometry" />
        </mxCell>
        <mxCell id="8-j4BtTnx-JnqvVjRiaJ-49" style="edgeStyle=orthogonalEdgeStyle;rounded=0;orthogonalLoop=1;jettySize=auto;html=1;exitX=0.5;exitY=1;exitDx=0;exitDy=0;entryX=0.5;entryY=0;entryDx=0;entryDy=0;" parent="1" source="8-j4BtTnx-JnqvVjRiaJ-24" target="8-j4BtTnx-JnqvVjRiaJ-26" edge="1">
          <mxGeometry relative="1" as="geometry" />
        </mxCell>
        <mxCell id="8-j4BtTnx-JnqvVjRiaJ-24" value="Копирование&lt;br&gt;данных" style="rounded=0;whiteSpace=wrap;html=1;fontFamily=Times New Roman;fontSize=16;" parent="1" vertex="1">
          <mxGeometry x="142.17" y="594" width="160" height="80" as="geometry" />
        </mxCell>
        <mxCell id="8-j4BtTnx-JnqvVjRiaJ-25" value="Обновление статистики" style="rounded=0;whiteSpace=wrap;html=1;fontFamily=Times New Roman;fontSize=16;" parent="1" vertex="1">
          <mxGeometry x="142.17" y="840" width="160" height="80" as="geometry" />
        </mxCell>
        <mxCell id="8-j4BtTnx-JnqvVjRiaJ-50" style="edgeStyle=orthogonalEdgeStyle;rounded=0;orthogonalLoop=1;jettySize=auto;html=1;exitX=0.5;exitY=1;exitDx=0;exitDy=0;entryX=0.5;entryY=0;entryDx=0;entryDy=0;" parent="1" source="8-j4BtTnx-JnqvVjRiaJ-26" target="8-j4BtTnx-JnqvVjRiaJ-25" edge="1">
          <mxGeometry relative="1" as="geometry" />
        </mxCell>
        <mxCell id="8-j4BtTnx-JnqvVjRiaJ-26" value="Освобождение&lt;br&gt;ресурсов" style="rounded=0;whiteSpace=wrap;html=1;fontFamily=Times New Roman;fontSize=16;" parent="1" vertex="1">
          <mxGeometry x="142.17" y="720" width="160" height="80" as="geometry" />
        </mxCell>
        <mxCell id="8-j4BtTnx-JnqvVjRiaJ-48" style="edgeStyle=orthogonalEdgeStyle;rounded=0;orthogonalLoop=1;jettySize=auto;html=1;exitX=0.5;exitY=1;exitDx=0;exitDy=0;entryX=0.5;entryY=0;entryDx=0;entryDy=0;dashed=1;" parent="1" source="8-j4BtTnx-JnqvVjRiaJ-41" target="8-j4BtTnx-JnqvVjRiaJ-24" edge="1">
          <mxGeometry relative="1" as="geometry" />
        </mxCell>
        <mxCell id="q-0QKQOBBgqSstTUB_Su-1" style="edgeStyle=orthogonalEdgeStyle;rounded=0;orthogonalLoop=1;jettySize=auto;html=1;exitX=0.25;exitY=1;exitDx=0;exitDy=0;entryX=0.25;entryY=0;entryDx=0;entryDy=0;dashed=1;" parent="1" source="8-j4BtTnx-JnqvVjRiaJ-41" target="8-j4BtTnx-JnqvVjRiaJ-14" edge="1">
          <mxGeometry relative="1" as="geometry">
            <Array as="points">
              <mxPoint x="182.17" y="574" />
              <mxPoint x="117.16999999999999" y="574" />
              <mxPoint x="117.16999999999999" y="334" />
              <mxPoint x="182.17" y="334" />
            </Array>
          </mxGeometry>
        </mxCell>
        <mxCell id="8-j4BtTnx-JnqvVjRiaJ-41" value="Выделение &lt;br&gt;памяти" style="rounded=0;whiteSpace=wrap;html=1;fontFamily=Times New Roman;fontSize=16;" parent="1" vertex="1">
          <mxGeometry x="142.17" y="474" width="160" height="80" as="geometry" />
        </mxCell>
        <mxCell id="8-j4BtTnx-JnqvVjRiaJ-57" value="" style="endArrow=none;html=1;rounded=0;" parent="1" edge="1">
          <mxGeometry width="50" height="50" relative="1" as="geometry">
            <mxPoint x="347.16999999999996" y="140" as="sourcePoint" />
            <mxPoint x="75" y="140" as="targetPoint" />
          </mxGeometry>
        </mxCell>
        <mxCell id="8-j4BtTnx-JnqvVjRiaJ-58" value="" style="endArrow=none;html=1;rounded=0;" parent="1" edge="1">
          <mxGeometry width="50" height="50" relative="1" as="geometry">
            <mxPoint x="347.16999999999996" y="940" as="sourcePoint" />
            <mxPoint x="75" y="940" as="targetPoint" />
          </mxGeometry>
        </mxCell>
        <mxCell id="q-0QKQOBBgqSstTUB_Su-6" value="" style="endArrow=none;html=1;rounded=0;" parent="1" edge="1">
          <mxGeometry width="50" height="50" relative="1" as="geometry">
            <mxPoint x="346.16999999999996" y="940" as="sourcePoint" />
            <mxPoint x="346.16999999999996" y="140" as="targetPoint" />
          </mxGeometry>
        </mxCell>
        <mxCell id="0QxBdEduHU2mTVZzbe1w-1" value="Запись страницы" style="text;html=1;strokeColor=none;fillColor=none;align=center;verticalAlign=middle;whiteSpace=wrap;rounded=0;fontFamily=Times New Roman;fontSize=16;" vertex="1" parent="1">
          <mxGeometry x="137.17" y="152" width="170" height="30" as="geometry" />
        </mxCell>
        <mxCell id="0QxBdEduHU2mTVZzbe1w-2" value="" style="endArrow=none;html=1;rounded=0;" edge="1" parent="1">
          <mxGeometry width="50" height="50" relative="1" as="geometry">
            <mxPoint x="365" y="960" as="sourcePoint" />
            <mxPoint x="365" y="90" as="targetPoint" />
          </mxGeometry>
        </mxCell>
        <mxCell id="0QxBdEduHU2mTVZzbe1w-3" value="" style="endArrow=none;html=1;rounded=0;" edge="1" parent="1">
          <mxGeometry width="50" height="50" relative="1" as="geometry">
            <mxPoint x="55" y="960" as="sourcePoint" />
            <mxPoint x="55" y="90" as="targetPoint" />
          </mxGeometry>
        </mxCell>
        <mxCell id="0QxBdEduHU2mTVZzbe1w-4" value="" style="endArrow=none;html=1;rounded=0;" edge="1" parent="1">
          <mxGeometry width="50" height="50" relative="1" as="geometry">
            <mxPoint x="365" y="960" as="sourcePoint" />
            <mxPoint x="54.999999999999986" y="960" as="targetPoint" />
          </mxGeometry>
        </mxCell>
        <mxCell id="0QxBdEduHU2mTVZzbe1w-5" value="" style="endArrow=none;html=1;rounded=0;" edge="1" parent="1">
          <mxGeometry width="50" height="50" relative="1" as="geometry">
            <mxPoint x="365" y="90" as="sourcePoint" />
            <mxPoint x="54.999999999999986" y="90" as="targetPoint" />
          </mxGeometry>
        </mxCell>
        <mxCell id="0QxBdEduHU2mTVZzbe1w-6" value="" style="endArrow=none;html=1;rounded=0;" edge="1" parent="1">
          <mxGeometry width="50" height="50" relative="1" as="geometry">
            <mxPoint x="75" y="940" as="sourcePoint" />
            <mxPoint x="75" y="140" as="targetPoint" />
          </mxGeometry>
        </mxCell>
        <mxCell id="0QxBdEduHU2mTVZzbe1w-7" value="" style="endArrow=none;dashed=1;html=1;rounded=0;endSize=6;strokeWidth=1;dashPattern=12 12;" edge="1" parent="1">
          <mxGeometry width="50" height="50" relative="1" as="geometry">
            <mxPoint x="565" y="70" as="sourcePoint" />
            <mxPoint x="565" y="980" as="targetPoint" />
          </mxGeometry>
        </mxCell>
        <mxCell id="0QxBdEduHU2mTVZzbe1w-8" value="" style="endArrow=none;dashed=1;html=1;rounded=0;endSize=6;strokeWidth=1;dashPattern=12 12;" edge="1" parent="1">
          <mxGeometry width="50" height="50" relative="1" as="geometry">
            <mxPoint x="565" y="980" as="sourcePoint" />
            <mxPoint x="35" y="980" as="targetPoint" />
          </mxGeometry>
        </mxCell>
        <mxCell id="0QxBdEduHU2mTVZzbe1w-9" value="" style="endArrow=none;dashed=1;html=1;rounded=0;endSize=6;strokeWidth=1;dashPattern=12 12;" edge="1" parent="1">
          <mxGeometry width="50" height="50" relative="1" as="geometry">
            <mxPoint x="565" y="70" as="sourcePoint" />
            <mxPoint x="35" y="70" as="targetPoint" />
          </mxGeometry>
        </mxCell>
      </root>
    </mxGraphModel>
  </diagram>
</mxfile>
